<?xml version="1.0" encoding="UTF-8"?><svg id="Camada_2" xmlns="http://www.w3.org/2000/svg" viewBox="0 0 325.75 96.48"><defs><style>.cls-1{fill:#fff;}</style></defs><g id="tudo"><path class="cls-1" d="M68.43,33.51c.7-1.17,.89-2.55,.55-3.87-.34-1.32-1.18-2.43-2.35-3.12-2.42-1.43-5.56-.62-6.99,1.8l-16.6,28.02-6.48-8.76c-1.67-2.26-4.87-2.74-7.14-1.08-1.1,.81-1.82,2-2.02,3.35-.21,1.35,.13,2.7,.94,3.79l11.06,14.96c.96,1.3,2.49,2.07,4.11,2.07,.09,0,.17,0,.26,0,1.72-.09,3.26-1.02,4.14-2.5l20.53-34.65Zm20.13,40.49c0,8.03-6.53,14.56-14.56,14.56H22.48c-8.03,0-14.56-6.53-14.56-14.56V22.48c0-8.03,6.53-14.56,14.56-14.56h51.53c8.03,0,14.56,6.53,14.56,14.56v51.53Zm7.92,0V22.48c0-12.39-10.08-22.48-22.48-22.48H22.48C10.08,0,0,10.08,0,22.48v51.53c0,12.39,10.08,22.47,22.48,22.47h51.53c12.39,0,22.48-10.08,22.48-22.47m89.81-11.61c0,3.79-.57,6.94-1.72,9.44-1.22,2.72-3.13,4.77-5.74,6.17-2.61,1.39-5.85,2.09-9.71,2.09-2.93,0-5.44-.43-7.51-1.29-2.07-.86-3.5-2.22-4.29-4.08-.5-1.29-.75-2.57-.75-3.86,0-1.14,.25-2.29,.75-3.43,.93-2.07,2.88-3.52,5.85-4.34,2.97-.82,6.7-1.23,11.21-1.23h11.9v.54Zm-48.45-29.01v-7.03c0-6.58,2.07-9.38,8.5-9.38h4.46c2.07-.1,3.72-1.8,3.72-3.89s-1.65-3.79-3.72-3.88h-4.52c-5.85,0-10.14,1.34-12.89,4.01-2.75,2.68-4.13,6.85-4.13,12.5v7.67h-8.41s-.04,0-.06,0c-2.15,0-3.89,1.74-3.89,3.89s1.74,3.89,3.89,3.89h8.47v41.51c0,.1-.02,.21-.02,.32,0,2.37,1.92,4.3,4.3,4.3s4.3-1.92,4.3-4.3c0-.01,0-.02,0-.03h0V41.16h34.4c6.65,0,10.87,2.08,12.66,6.16,.5,1.14,.86,2.32,1.07,3.54,.21,1.22,.32,2.61,.32,4.18v.28h-12.55c-6.51,0-11.85,.7-16.03,2.09-4.18,1.39-7.1,3.91-8.74,7.56-.86,1.93-1.29,4.15-1.29,6.65s.43,4.79,1.29,6.86c1.29,2.86,3.5,5.04,6.65,6.54,3.15,1.5,6.94,2.25,11.37,2.25,9.08,0,15.52-2.9,19.31-8.69v3.99c-.01,.13-.02,.27-.02,.41,0,2.37,1.92,4.3,4.3,4.3s4.3-1.92,4.3-4.3c0-.08,0-.15-.01-.23h.02v-27.65c0-5.08-.72-8.42-2.15-11.49-1.5-3.5-3.95-6.1-7.35-7.78-3.37-1.66-7.74-2.43-13.11-2.44h-34.43Zm150.14-14.93c.28-.61,.45-1.19,.45-2.17v-.72h-3.99v1.26h2.6c0,.14-.02,.22-.05,.36l-.02,.1c-.04,.24-.11,.46-.19,.67-.19,.42-.49,.74-.89,.96-.41,.22-.92,.33-1.53,.33-.64,0-1.18-.12-1.61-.37-.42-.24-.75-.6-.96-1.08-.12-.27-.21-.57-.27-.91-.06-.33-.08-.72-.08-1.15s.03-.83,.08-1.16c.06-.34,.15-.63,.27-.91,.21-.47,.53-.83,.95-1.08,.43-.25,.97-.37,1.61-.37,.41,0,.78,.05,1.11,.15,.32,.1,.59,.24,.79,.44,.41,.38,.61,.65,.68,1.28l.02,.15h1.39v-.18c-.05-.51-.15-.73-.33-1.13-.18-.41-.44-.76-.76-1.05-.69-.63-1.66-.95-2.89-.95-.95,0-1.76,.2-2.41,.59-.66,.39-1.16,.97-1.49,1.7-.31,.67-.47,1.52-.47,2.52s.16,1.85,.47,2.52c.32,.73,.82,1.3,1.47,1.7,.65,.39,1.45,.59,2.39,.59s1.65-.18,2.26-.52c.61-.35,1.08-.88,1.39-1.56m5.66-3.34h-1.83v-2.75h1.83c.51,0,.91,.06,1.2,.18,.28,.11,.46,.28,.57,.53,.08,.18,.12,.4,.12,.65s-.05,.49-.14,.69c-.1,.23-.29,.4-.56,.52-.29,.12-.7,.19-1.2,.19m4.02,5.22l-3.14-4.03c1.1-.12,1.84-.59,2.2-1.41,.15-.34,.23-.75,.23-1.21,0-.43-.08-.83-.23-1.19-.41-.92-1.37-1.38-2.85-1.38h-3.43v9.21h1.38v-4h1.09l3.08,4h1.67Zm7.11-.59c.56-.53,.84-1.34,.84-2.42v-6.2h-1.37v6.13c0,.69-.16,1.2-.48,1.52-.32,.32-.84,.48-1.56,.48s-1.24-.16-1.55-.48c-.32-.32-.48-.83-.48-1.52v-6.13h-1.38v6.2c0,1.08,.28,1.9,.84,2.42,.55,.52,1.42,.79,2.57,.79s2.02-.26,2.57-.79m7.95-5.99c0,.25-.04,.48-.12,.68-.11,.25-.29,.42-.56,.52-.29,.11-.68,.17-1.17,.17h-1.66v-2.77h1.66c.48,0,.87,.06,1.16,.18,.27,.11,.46,.29,.57,.54,.09,.19,.13,.42,.13,.68m1.18,1.24c.15-.34,.23-.76,.23-1.25s-.08-.9-.23-1.24c-.22-.47-.58-.82-1.06-1.05-.47-.22-1.07-.33-1.77-.33h-3.26v9.21h1.38v-3.96h1.87c.7,0,1.3-.11,1.77-.34,.49-.23,.84-.58,1.06-1.04m8.78,.74c0,.41-.03,.78-.09,1.12-.05,.32-.15,.63-.28,.92-.21,.46-.52,.83-.93,1.08-.41,.25-.95,.38-1.59,.38s-1.17-.13-1.58-.39c-.41-.25-.73-.62-.94-1.08-.23-.53-.35-1.21-.35-2.03s.12-1.51,.35-2.03c.21-.46,.53-.83,.94-1.08,.42-.26,.95-.39,1.58-.39s1.18,.13,1.59,.39c.41,.25,.72,.62,.93,1.08,.13,.29,.22,.59,.28,.92,.06,.33,.09,.71,.09,1.12m.95,2.57c.33-.72,.49-1.58,.49-2.57s-.17-1.86-.49-2.57c-.31-.71-.8-1.26-1.44-1.65-.64-.39-1.45-.58-2.39-.58s-1.74,.2-2.38,.59c-.64,.39-1.13,.95-1.45,1.66-.32,.7-.48,1.56-.48,2.56,0,.58,.06,1.12,.18,1.62,.12,.5,.3,.95,.53,1.33,.33,.59,.81,1.05,1.41,1.37,.6,.32,1.34,.49,2.19,.49,.95,0,1.75-.2,2.39-.58,.64-.39,1.12-.94,1.45-1.65m-6.46,44.09c0,3.79-.57,6.94-1.72,9.44-1.22,2.72-3.13,4.77-5.74,6.17-2.61,1.39-5.85,2.09-9.71,2.09-2.93,0-5.43-.43-7.51-1.29-2.07-.86-3.5-2.22-4.29-4.08-.5-1.29-.75-2.57-.75-3.86,0-1.14,.25-2.29,.75-3.43,.93-2.07,2.88-3.52,5.85-4.34,2.97-.82,6.7-1.23,11.21-1.23h11.9v.54Zm8.58,20.59h0v-27.88c0-5.08-.72-8.42-2.14-11.49-1.5-3.5-3.95-6.1-7.35-7.78-3.37-1.67-7.75-2.43-13.13-2.44h-34.75V14.23c0-.09,.01-.18,.01-.27,0-2.36-1.92-4.27-4.3-4.27s-4.29,1.91-4.3,4.26h0v19.44h-34.22c-5.54,.01-10.29,1.19-14.24,3.54-3.97,2.36-6.92,5.72-8.85,10.08-1.72,3.86-2.57,7.63-2.57,12.92s.86,9.83,2.57,13.84c1.93,4.29,4.9,7.6,8.9,9.92,4,2.32,8.76,3.49,14.27,3.49,3.65,0,6.99-.5,10.03-1.5,3.04-1,5.63-2.47,7.78-4.4,3.61-3.4,5.66-7.88,6.15-13.42,.05-.26,.08-.54,.08-.81,0-2.56-2.09-4.64-4.67-4.64s-4.67,2.08-4.67,4.64v.02c-.08,1.84-.45,3.54-1.12,5.1-.68,1.57-1.63,2.9-2.84,3.97-1.22,1.14-2.74,2.02-4.56,2.63-1.82,.61-3.88,.91-6.17,.91-3.5,0-6.49-.77-8.96-2.31-2.47-1.54-4.34-3.66-5.63-6.38-1.29-2.86-1.93-6.54-1.93-11.05s.64-7.45,1.93-10.24c1.29-2.79,3.16-4.95,5.63-6.49,2.46-1.53,5.43-2.04,8.92-2.04h34.17v41.82h0c0,2.37,1.92,4.3,4.3,4.3s4.3-1.92,4.3-4.3c0-.09,0-.18-.01-.27V41.16h34.75c6.65,0,10.86,2.08,12.65,6.15,.5,1.14,.86,2.32,1.07,3.54,.21,1.22,.32,2.61,.32,4.18v.28h-12.55c-6.51,0-11.85,.7-16.03,2.09-4.18,1.39-7.1,3.91-8.74,7.56-.86,1.93-1.29,4.15-1.29,6.65s.43,4.79,1.29,6.86c1.29,2.86,3.5,5.04,6.65,6.54,3.15,1.5,6.94,2.25,11.37,2.25,9.08,0,15.52-2.9,19.31-8.69v4.16c0,.08-.01,.15-.01,.23,0,2.37,1.92,4.3,4.3,4.3s4.3-1.92,4.3-4.3"/></g></svg>